<svg width="1080" height="1080" viewBox="0 0 1080 1080" fill="none" xmlns="http://www.w3.org/2000/svg">
<g clip-path="url(#clip0_74_85)">
<path d="M1080 0H0V1080H1080V0Z" fill="#0D2047"/>
<path d="M505.1 452.9C509.1 452.9 512.6 453.7 515.6 455.2C518.5 456.7 521 459 523.1 461.9L518.2 466.6C516.5 464 514.5 462.1 512.4 460.9C510.2 459.7 507.7 459.2 504.7 459.2C502.5 459.2 500.7 459.5 499.3 460.1C497.9 460.7 496.9 461.5 496.2 462.4C495.5 463.3 495.2 464.5 495.2 465.7C495.2 467.1 495.7 468.3 496.7 469.4C497.7 470.4 499.5 471.3 502.2 471.8L511.3 473.8C515.7 474.8 518.7 476.2 520.5 478.2C522.3 480.1 523.2 482.6 523.2 485.6C523.2 488.4 522.5 490.8 521 492.8C519.5 494.8 517.4 496.4 514.8 497.5C512.1 498.6 509 499.1 505.4 499.1C502.2 499.1 499.4 498.7 496.8 497.9C494.3 497.1 492 496 490.1 494.6C488.2 493.2 486.6 491.6 485.4 489.8L490.4 484.8C491.4 486.4 492.6 487.8 494 489.1C495.5 490.3 497.1 491.3 499.1 492C501 492.7 503.2 493 505.5 493C507.6 493 509.4 492.8 510.9 492.3C512.4 491.8 513.6 491.1 514.4 490.1C515.2 489.1 515.6 488 515.6 486.6C515.6 485.3 515.2 484.1 514.3 483.1C513.4 482.1 511.8 481.3 509.4 480.8L499.5 478.6C496.8 478 494.5 477.2 492.8 476.1C491 475 489.7 473.7 488.9 472.1C488 470.5 487.6 468.8 487.6 466.8C487.6 464.3 488.3 462 489.7 459.9C491.1 457.8 493.1 456.2 495.7 454.9C498.3 453.6 501.5 452.9 505.1 452.9Z" fill="white"/>
<path d="M547.2 463.801C550.5 463.801 553.4 464.501 556 465.901C558.5 467.301 560.5 469.301 562 472.001C563.5 474.701 564.1 477.801 564.1 481.501C564.1 485.201 563.4 488.301 562 491.001C560.6 493.701 558.6 495.701 556 497.101C553.5 498.501 550.5 499.201 547.2 499.201C543.9 499.201 541 498.501 538.4 497.101C535.9 495.701 533.9 493.701 532.4 491.001C530.9 488.301 530.2 485.201 530.2 481.501C530.2 477.801 530.9 474.701 532.4 472.001C533.9 469.301 535.8 467.301 538.4 465.901C541 464.501 543.9 463.801 547.2 463.801ZM547.2 469.501C545.2 469.501 543.4 470.001 542 470.901C540.6 471.801 539.5 473.201 538.7 474.901C537.9 476.701 537.5 478.801 537.5 481.401C537.5 483.901 537.9 486.101 538.7 487.901C539.5 489.701 540.6 491.101 542 492.001C543.4 492.901 545.2 493.401 547.2 493.401C549.2 493.401 551 492.901 552.4 492.001C553.8 491.101 554.9 489.701 555.7 487.901C556.5 486.101 556.9 483.901 556.9 481.401C556.9 478.801 556.5 476.601 555.7 474.901C554.9 473.101 553.8 471.801 552.4 470.901C551 470.001 549.2 469.501 547.2 469.501Z" fill="white"/>
<path d="M578.8 498.5V470.9H569.4V465H578.8V457.6C578.8 455.6 579.4 453.9 580.6 452.7C581.8 451.5 583.5 450.9 585.5 450.9H594.1V456.8H587.7C586.4 456.8 585.7 457.5 585.7 458.8V464.9H595.4V470.8H585.7V498.4H578.8V498.5Z" fill="white"/>
<path d="M624.7 464.5V470.2H599.2V464.5H624.7ZM613 454.5V488.3C613 490 613.4 491.2 614.3 492C615.2 492.8 616.4 493.2 617.9 493.2C619.1 493.2 620.2 493 621.1 492.6C622 492.2 622.8 491.7 623.6 491L625.2 496.3C624.2 497.2 622.9 497.9 621.4 498.4C619.9 498.9 618.2 499.2 616.3 499.2C614.3 499.2 612.6 498.9 610.9 498.2C609.3 497.6 608 496.5 607.1 495.1C606.2 493.7 605.7 491.8 605.7 489.5V456.5L613 454.5Z" fill="white"/>
<path d="M635.1 498.5L629.4 465H636.4L640.6 493.8H641.7L647.5 465H658.9L664.7 493.8H665.8L670 465H677L671.3 498.5H659.5L653.7 469.7H652.6L646.8 498.5H635.1Z" fill="white"/>
<path d="M705.4 476.7C705.4 474.4 704.8 472.7 703.5 471.4C702.3 470.2 700.5 469.5 698.4 469.5C696.4 469.5 694.6 470 693.2 470.9C691.7 471.9 690.7 473.4 690 475.5L683.9 472.9C684.8 470.1 686.4 467.9 689 466.2C691.5 464.5 694.8 463.7 698.8 463.7C701.5 463.7 703.9 464.1 706 465C708.1 465.9 709.7 467.2 710.9 469C712.1 470.8 712.7 473 712.7 475.8V491C712.7 492.7 713.5 493.5 715.2 493.5C716 493.5 716.8 493.4 717.6 493.2L717.2 498.2C716.2 498.7 714.8 498.9 713.3 498.9C711.8 498.9 710.5 498.6 709.4 498.1C708.2 497.6 707.3 496.8 706.7 495.7C706 494.6 705.7 493.3 705.7 491.7V491.2L707.2 491.1C706.8 492.9 706 494.3 704.7 495.5C703.4 496.7 702 497.5 700.3 498.1C698.6 498.7 696.9 498.9 695.2 498.9C693.1 498.9 691.2 498.6 689.5 497.9C687.8 497.2 686.5 496.2 685.5 494.8C684.5 493.4 684 491.7 684 489.7C684 487.2 684.8 485.1 686.5 483.4C688.2 481.8 690.5 480.7 693.5 480.1L706.7 477.5L706.6 482.6L697 484.6C695.1 485 693.7 485.5 692.7 486.2C691.7 486.9 691.3 487.9 691.3 489.2C691.3 490.5 691.8 491.5 692.8 492.2C693.8 492.9 695.1 493.3 696.7 493.3C697.8 493.3 698.9 493.2 700 492.9C701.1 492.6 702 492.2 702.9 491.6C703.8 491 704.4 490.2 704.9 489.2C705.4 488.2 705.6 487.1 705.6 485.7V476.7H705.4Z" fill="white"/>
<path d="M724.5 498.501V464.501H730.7L731.4 470.601C732.3 468.401 733.7 466.701 735.4 465.501C737.2 464.301 739.4 463.801 742 463.801C742.7 463.801 743.4 463.901 744 464.001C744.7 464.101 745.2 464.301 745.7 464.501L744.7 470.901C744.2 470.701 743.6 470.601 743 470.501C742.4 470.401 741.6 470.301 740.5 470.301C739.1 470.301 737.7 470.701 736.4 471.401C735 472.101 733.9 473.301 733 474.801C732.1 476.301 731.7 478.201 731.7 480.501V498.501H724.5Z" fill="white"/>
<path d="M767.6 499.201C764.2 499.201 761.2 498.501 758.6 497.101C756 495.701 754 493.701 752.6 491.001C751.2 488.301 750.5 485.201 750.5 481.501C750.5 477.801 751.2 474.701 752.6 472.001C754 469.301 756 467.301 758.5 465.901C761 464.501 763.9 463.801 767.1 463.801C770.4 463.801 773.2 464.501 775.5 465.801C777.8 467.201 779.6 469.001 780.8 471.401C782 473.801 782.6 476.401 782.6 479.401C782.6 480.201 782.6 481.001 782.5 481.701C782.5 482.401 782.4 483.101 782.3 483.601H755V478.001H779.1L775.5 479.101C775.5 476.001 774.7 473.601 773.2 472.001C771.7 470.401 769.6 469.501 766.9 469.501C765 469.501 763.3 470.001 761.8 470.901C760.3 471.801 759.2 473.201 758.5 474.901C757.7 476.701 757.3 478.901 757.3 481.501C757.3 484.001 757.7 486.201 758.5 488.001C759.3 489.801 760.5 491.101 762 492.001C763.5 492.901 765.3 493.401 767.3 493.401C769.6 493.401 771.4 493.001 772.8 492.101C774.2 491.201 775.3 490.001 776.1 488.501L781.9 491.201C781.1 492.801 780 494.301 778.6 495.401C777.2 496.601 775.6 497.501 773.7 498.201C772 498.901 769.9 499.201 767.6 499.201Z" fill="white"/>
<path d="M489.8 568.501V523.601H522.3V529.901H497.1V542.801H516.8V548.901H497.1V562.201H523.3V568.501H489.8Z" fill="white"/>
<path d="M532 568.5V534.5H538.5L539 543.3L538 542.3C538.6 540.4 539.6 538.7 540.8 537.4C542 536.1 543.4 535.2 545.1 534.6C546.8 534 548.5 533.7 550.4 533.7C552.8 533.7 555 534.2 556.9 535.1C558.8 536 560.4 537.4 561.5 539.3C562.6 541.2 563.2 543.5 563.2 546.4V568.4H555.9V548.6C555.9 545.2 555.2 542.9 553.8 541.6C552.4 540.3 550.7 539.7 548.6 539.7C547.1 539.7 545.7 540.1 544.2 540.8C542.8 541.5 541.6 542.6 540.7 544.2C539.8 545.7 539.3 547.8 539.3 550.4V568.5H532Z" fill="white"/>
<path d="M593.3 563.2C596.7 563.2 599.4 564 601.3 565.5C603.2 567 604.2 569.1 604.2 571.8C604.2 574.2 603.5 576.2 602 577.9C600.5 579.6 598.5 580.9 595.9 581.8C593.3 582.7 590.4 583.2 587.1 583.2C581.5 583.2 577.4 582.3 574.7 580.6C572 578.9 570.7 576.7 570.7 574.1C570.7 572.3 571.3 570.7 572.6 569.3C573.9 567.9 576.1 567.2 579.2 567L578.8 568.1C576.9 567.7 575.4 567 574.2 565.9C573 564.8 572.5 563.3 572.5 561.4C572.5 559.5 573.2 557.8 574.7 556.4C576.2 555 578.3 554.2 581 554L584.8 555.8H584C581.9 556 580.4 556.5 579.6 557.2C578.7 558 578.3 558.8 578.3 559.8C578.3 560.9 578.7 561.8 579.6 562.3C580.4 562.8 581.6 563.1 583.2 563.1H593.3V563.2ZM586.8 533.8C589.8 533.8 592.4 534.3 594.6 535.2C596.8 536.2 598.5 537.5 599.7 539.2C600.9 540.9 601.5 542.9 601.5 545.3C601.5 547.6 600.9 549.6 599.7 551.4C598.5 553.2 596.8 554.5 594.6 555.4C592.4 556.4 589.8 556.8 586.8 556.8C582.1 556.8 578.5 555.7 576 553.6C573.5 551.5 572.2 548.7 572.2 545.3C572.2 543 572.8 541 574 539.2C575.2 537.5 576.9 536.1 579.1 535.2C581.3 534.3 583.9 533.8 586.8 533.8ZM587 577.7C589.5 577.7 591.5 577.5 593.2 577C594.8 576.5 596 575.9 596.8 575.2C597.6 574.5 598 573.6 598 572.7C598 571.7 597.6 570.8 596.7 570.2C595.8 569.6 594.4 569.2 592.2 569.2H581.3C580 569.2 579 569.5 578.1 570.2C577.2 570.9 576.8 571.8 576.8 572.9C576.8 574.4 577.7 575.6 579.5 576.4C581.3 577.2 583.8 577.7 587 577.7ZM586.8 538.9C584.7 538.9 583 539.5 581.6 540.6C580.2 541.8 579.5 543.3 579.5 545.3C579.5 547.3 580.2 548.8 581.6 550C583 551.2 584.7 551.8 586.8 551.8C588.9 551.8 590.7 551.2 592.1 550C593.5 548.8 594.2 547.3 594.2 545.3C594.2 543.4 593.5 541.8 592.1 540.6C590.6 539.5 588.9 538.9 586.8 538.9ZM604 527.4L605.2 533.1C605.1 533.1 604.9 533.1 604.8 533.1C604.7 533.1 604.5 533.1 604.4 533.1C602.2 533.1 600.6 533.6 599.4 534.5C598.3 535.4 597.7 536.8 597.7 538.5L594.2 536.9C594.2 535.1 594.6 533.5 595.4 532C596.2 530.6 597.3 529.5 598.7 528.6C600.1 527.7 601.7 527.4 603.6 527.4C603.7 527.4 603.8 527.4 603.9 527.4C603.9 527.4 603.9 527.4 604 527.4Z" fill="white"/>
<path d="M614.5 528.8C612.9 528.8 611.7 528.4 610.9 527.6C610.1 526.8 609.6 525.7 609.6 524.2C609.6 522.7 610 521.6 610.9 520.9C611.7 520.1 613 519.7 614.5 519.7C616 519.7 617.2 520.1 618.1 520.9C618.9 521.7 619.4 522.8 619.4 524.2C619.4 525.6 619 526.8 618.1 527.6C617.2 528.4 616 528.8 614.5 528.8ZM618.1 534.5V568.5H610.8V534.5H618.1Z" fill="white"/>
<path d="M629.5 568.5V534.5H636L636.5 543.3L635.5 542.3C636.1 540.4 637.1 538.7 638.3 537.4C639.5 536.1 640.9 535.2 642.6 534.6C644.3 534 646 533.7 647.9 533.7C650.3 533.7 652.5 534.2 654.4 535.1C656.3 536 657.9 537.4 659 539.3C660.1 541.2 660.7 543.5 660.7 546.4V568.4H653.4V548.6C653.4 545.2 652.7 542.9 651.3 541.6C649.9 540.3 648.2 539.7 646.1 539.7C644.6 539.7 643.2 540.1 641.7 540.8C640.3 541.5 639.1 542.6 638.2 544.2C637.3 545.7 636.8 547.8 636.8 550.4V568.5H629.5Z" fill="white"/>
<path d="M686.5 569.201C683.1 569.201 680.1 568.501 677.5 567.101C674.9 565.701 672.9 563.701 671.5 561.001C670.1 558.301 669.4 555.201 669.4 551.501C669.4 547.801 670.1 544.701 671.5 542.001C672.9 539.301 674.9 537.301 677.4 535.901C679.9 534.501 682.8 533.801 686 533.801C689.3 533.801 692.1 534.501 694.4 535.801C696.7 537.201 698.5 539.001 699.7 541.401C700.9 543.801 701.5 546.401 701.5 549.401C701.5 550.201 701.5 551.001 701.4 551.701C701.4 552.401 701.3 553.101 701.2 553.601H673.9V548.001H698L694.4 549.101C694.4 546.001 693.6 543.601 692.1 542.001C690.6 540.401 688.5 539.501 685.8 539.501C683.9 539.501 682.2 540.001 680.7 540.901C679.2 541.801 678.1 543.201 677.4 544.901C676.6 546.701 676.2 548.901 676.2 551.501C676.2 554.001 676.6 556.201 677.4 558.001C678.2 559.801 679.4 561.101 680.9 562.001C682.4 562.901 684.2 563.401 686.2 563.401C688.5 563.401 690.3 563.001 691.7 562.101C693.1 561.201 694.2 560.001 695 558.501L700.8 561.201C700 562.801 698.9 564.301 697.5 565.401C696.1 566.601 694.5 567.501 692.6 568.201C690.9 568.901 688.8 569.201 686.5 569.201Z" fill="white"/>
<path d="M725.8 569.201C722.4 569.201 719.4 568.501 716.8 567.101C714.2 565.701 712.2 563.701 710.8 561.001C709.4 558.301 708.7 555.201 708.7 551.501C708.7 547.801 709.4 544.701 710.8 542.001C712.2 539.301 714.2 537.301 716.7 535.901C719.2 534.501 722.1 533.801 725.3 533.801C728.6 533.801 731.4 534.501 733.7 535.801C736 537.201 737.8 539.001 739 541.401C740.2 543.801 740.8 546.401 740.8 549.401C740.8 550.201 740.8 551.001 740.7 551.701C740.7 552.401 740.6 553.101 740.5 553.601H713.4V548.001H737.5L733.9 549.101C733.9 546.001 733.1 543.601 731.6 542.001C730.1 540.401 728 539.501 725.3 539.501C723.4 539.501 721.7 540.001 720.2 540.901C718.7 541.801 717.6 543.201 716.9 544.901C716.1 546.701 715.7 548.901 715.7 551.501C715.7 554.001 716.1 556.201 716.9 558.001C717.7 559.801 718.9 561.101 720.4 562.001C721.9 562.901 723.7 563.401 725.7 563.401C728 563.401 729.8 563.001 731.2 562.101C732.6 561.201 733.7 560.001 734.5 558.501L740.3 561.201C739.5 562.801 738.4 564.301 737 565.401C735.6 566.601 734 567.501 732.1 568.201C730.2 568.901 728.1 569.201 725.8 569.201Z" fill="white"/>
<path d="M750.2 568.501V534.501H756.4L757.1 540.601C758 538.401 759.4 536.701 761.1 535.501C762.9 534.301 765.1 533.801 767.7 533.801C768.4 533.801 769.1 533.901 769.7 534.001C770.4 534.101 770.9 534.301 771.4 534.501L770.4 540.901C769.9 540.701 769.3 540.601 768.7 540.501C768.1 540.401 767.3 540.301 766.2 540.301C764.8 540.301 763.4 540.701 762.1 541.401C760.7 542.101 759.6 543.301 758.7 544.801C757.8 546.301 757.4 548.201 757.4 550.501V568.501H750.2Z" fill="white"/>
<path d="M782 528.8C780.4 528.8 779.2 528.4 778.4 527.6C777.6 526.8 777.1 525.7 777.1 524.2C777.1 522.7 777.5 521.6 778.4 520.9C779.2 520.1 780.5 519.7 782 519.7C783.5 519.7 784.7 520.1 785.6 520.9C786.4 521.7 786.9 522.8 786.9 524.2C786.9 525.6 786.5 526.8 785.6 527.6C784.7 528.4 783.5 528.8 782 528.8ZM785.6 534.5V568.5H778.3V534.5H785.6Z" fill="white"/>
<path d="M796.9 568.5V534.5H803.4L803.9 543.3L802.9 542.3C803.5 540.4 804.5 538.7 805.7 537.4C806.9 536.1 808.3 535.2 810 534.6C811.7 534 813.4 533.7 815.3 533.7C817.7 533.7 819.9 534.2 821.8 535.1C823.7 536 825.3 537.4 826.4 539.3C827.5 541.2 828.1 543.5 828.1 546.4V568.4H820.8V548.6C820.8 545.2 820.1 542.9 818.7 541.6C817.3 540.3 815.6 539.7 813.5 539.7C812 539.7 810.6 540.1 809.1 540.8C807.7 541.5 806.5 542.6 805.6 544.2C804.7 545.7 804.2 547.8 804.2 550.4V568.5H796.9Z" fill="white"/>
<path d="M858.2 563.2C861.6 563.2 864.3 564 866.2 565.5C868.1 567 869.1 569.1 869.1 571.8C869.1 574.2 868.4 576.2 866.9 577.9C865.4 579.6 863.4 580.9 860.8 581.8C858.2 582.7 855.3 583.2 852 583.2C846.4 583.2 842.3 582.3 839.6 580.6C836.9 578.9 835.6 576.7 835.6 574.1C835.6 572.3 836.2 570.7 837.5 569.3C838.8 567.9 841 567.2 844.1 567L843.7 568.1C841.8 567.7 840.3 567 839.1 565.9C837.9 564.8 837.4 563.3 837.4 561.4C837.4 559.5 838.1 557.8 839.6 556.4C841.1 555 843.2 554.2 845.9 554L849.7 555.8H848.9C846.8 556 845.3 556.5 844.5 557.2C843.6 558 843.2 558.8 843.2 559.8C843.2 560.9 843.6 561.8 844.5 562.3C845.3 562.8 846.5 563.1 848.1 563.1H858.2V563.2ZM851.7 533.8C854.7 533.8 857.3 534.3 859.5 535.2C861.7 536.2 863.4 537.5 864.6 539.2C865.8 540.9 866.4 542.9 866.4 545.3C866.4 547.6 865.8 549.6 864.6 551.4C863.4 553.2 861.7 554.5 859.5 555.4C857.3 556.4 854.7 556.8 851.7 556.8C847 556.8 843.4 555.7 840.9 553.6C838.4 551.5 837.1 548.7 837.1 545.3C837.1 543 837.7 541 838.9 539.2C840.1 537.5 841.8 536.1 844 535.2C846.2 534.3 848.8 533.8 851.7 533.8ZM852 577.7C854.5 577.7 856.5 577.5 858.2 577C859.8 576.5 861 575.9 861.8 575.2C862.6 574.5 863 573.6 863 572.7C863 571.7 862.6 570.8 861.7 570.2C860.8 569.6 859.4 569.2 857.2 569.2H846.3C845 569.2 844 569.5 843.1 570.2C842.2 570.9 841.8 571.8 841.8 572.9C841.8 574.4 842.7 575.6 844.5 576.4C846.3 577.2 848.7 577.7 852 577.7ZM851.7 538.9C849.6 538.9 847.9 539.5 846.5 540.6C845.1 541.8 844.4 543.3 844.4 545.3C844.4 547.3 845.1 548.8 846.5 550C847.9 551.2 849.6 551.8 851.7 551.8C853.8 551.8 855.6 551.2 857 550C858.4 548.8 859.1 547.3 859.1 545.3C859.1 543.4 858.4 541.8 857 540.6C855.6 539.5 853.8 538.9 851.7 538.9ZM869 527.4L870.2 533.1C870.1 533.1 869.9 533.1 869.8 533.1C869.7 533.1 869.5 533.1 869.4 533.1C867.2 533.1 865.6 533.6 864.4 534.5C863.3 535.4 862.7 536.8 862.7 538.5L859.2 536.9C859.2 535.1 859.6 533.5 860.4 532C861.2 530.6 862.3 529.5 863.7 528.6C865.1 527.7 866.7 527.4 868.6 527.4C868.7 527.4 868.8 527.4 868.9 527.4C868.8 527.4 868.9 527.4 869 527.4Z" fill="white"/>
<path d="M497.2 632.5C495.2 632.5 493.5 632.1 492 631.2C490.5 630.3 489.2 629.1 488.3 627.6C487.4 626.1 487 624.3 487 622.4V605.8H490.6V622.3C490.6 623.7 490.9 624.9 491.5 625.9C492.1 626.9 492.9 627.7 493.9 628.3C494.9 628.9 496 629.1 497.3 629.1C498.6 629.1 499.7 628.8 500.7 628.3C501.7 627.7 502.4 627 503 625.9C503.6 624.9 503.9 623.7 503.9 622.3V605.7H507.5V622.3C507.5 624.2 507.1 625.9 506.2 627.5C505.3 629 504.1 630.2 502.6 631.1C500.9 632 499.2 632.5 497.2 632.5Z" fill="white"/>
<path d="M525.2 632.5C523.3 632.5 521.5 632.2 519.9 631.5C518.3 630.8 516.9 629.8 515.7 628.6C514.5 627.4 513.6 625.9 512.9 624.3C512.2 622.7 511.9 620.9 511.9 619C511.9 617.1 512.2 615.3 512.9 613.7C513.6 612.1 514.5 610.6 515.7 609.4C516.9 608.2 518.3 607.2 519.9 606.5C521.5 605.8 523.3 605.5 525.1 605.5C527.2 605.5 529 605.9 530.6 606.6C532.2 607.3 533.6 608.3 534.8 609.5L532.3 612C531.5 611.1 530.4 610.3 529.2 609.8C528 609.3 526.6 609 525.1 609C523.7 609 522.5 609.2 521.3 609.7C520.1 610.2 519.1 610.9 518.3 611.8C517.4 612.7 516.8 613.8 516.3 615C515.8 616.2 515.6 617.6 515.6 619.1C515.6 620.6 515.8 621.9 516.3 623.2C516.8 624.5 517.4 625.5 518.3 626.4C519.2 627.3 520.2 628 521.3 628.5C522.4 629 523.7 629.2 525.1 629.2C526.7 629.2 528.2 628.9 529.4 628.4C530.6 627.9 531.6 627.1 532.5 626.2L535 628.7C533.8 629.9 532.4 630.9 530.7 631.6C529 632.3 527.3 632.5 525.2 632.5Z" fill="white"/>
<path d="M549.3 632.5C547.3 632.5 545.6 632.1 544.1 631.2C542.6 630.3 541.3 629.1 540.4 627.6C539.5 626.1 539.1 624.3 539.1 622.4V605.8H542.7V622.3C542.7 623.7 543 624.9 543.6 625.9C544.2 626.9 545 627.7 546 628.3C547 628.9 548.1 629.1 549.4 629.1C550.7 629.1 551.8 628.8 552.8 628.3C553.8 627.7 554.5 627 555.1 625.9C555.7 624.9 556 623.7 556 622.3V605.7H559.6V622.3C559.6 624.2 559.2 625.9 558.3 627.5C557.4 629 556.2 630.2 554.7 631.1C553 632 551.3 632.5 549.3 632.5Z" fill="white"/>
<path d="M585.2 632.5C583.3 632.5 581.5 632.2 579.9 631.5C578.3 630.8 576.9 629.8 575.7 628.6C574.5 627.4 573.6 625.9 572.9 624.3C572.2 622.7 571.9 620.9 571.9 619C571.9 617.1 572.2 615.3 572.9 613.7C573.6 612.1 574.5 610.6 575.7 609.4C576.9 608.2 578.3 607.2 579.9 606.5C581.5 605.8 583.3 605.5 585.1 605.5C587.2 605.5 589 605.9 590.6 606.6C592.2 607.3 593.6 608.3 594.8 609.5L592.3 612C591.5 611.1 590.4 610.3 589.2 609.8C588 609.3 586.6 609 585.1 609C583.7 609 582.5 609.2 581.3 609.7C580.1 610.2 579.1 610.9 578.3 611.8C577.4 612.7 576.8 613.8 576.3 615C575.8 616.2 575.6 617.6 575.6 619.1C575.6 620.6 575.8 621.9 576.3 623.2C576.8 624.5 577.4 625.5 578.3 626.4C579.2 627.3 580.2 628 581.3 628.5C582.4 629 583.7 629.2 585.1 629.2C586.7 629.2 588.2 628.9 589.4 628.4C590.6 627.9 591.6 627.1 592.5 626.2L595 628.7C593.8 629.9 592.4 630.9 590.7 631.6C589 632.3 587.2 632.5 585.2 632.5Z" fill="white"/>
<path d="M599.4 632.1V605.7H603V632.1H599.4ZM601.8 620.1V616.8H617.2V620.1H601.8ZM616.4 632.1V605.7H620V632.1H616.4Z" fill="white"/>
<path d="M624.2 632.1L635 605.7H637.6L648.4 632.1H644.5L635.6 609.8H637L628.1 632.1H624.2ZM629.4 626.1V623H643.3V626.1H629.4Z" fill="white"/>
<path d="M652.6 632.1V605.7H656.2V632.1H652.6ZM655 621.8V618.7H662.2C663.2 618.7 664.1 618.5 664.8 618.1C665.6 617.7 666.2 617.1 666.6 616.4C667 615.7 667.3 614.8 667.3 613.8C667.3 612.8 667.1 611.9 666.6 611.2C666.2 610.5 665.5 609.9 664.8 609.5C664 609.1 663.1 608.9 662.2 608.9H655V605.8H662.4C664 605.8 665.5 606.1 666.8 606.8C668.1 607.5 669.1 608.4 669.9 609.6C670.6 610.8 671 612.2 671 613.9C671 615.5 670.6 616.9 669.9 618.2C669.2 619.4 668.1 620.4 666.8 621C665.5 621.7 664.1 622 662.4 622H655V621.8Z" fill="white"/>
<path d="M673.7 609V605.7H695.2V609H673.7ZM682.6 632.1V606.5H686.2V632.1H682.6Z" fill="white"/>
<path d="M699.4 632.1V605.7H703V632.1H699.4ZM701.8 609V605.7H716.7V609H701.8ZM701.8 620.2V617H715.7V620.2H701.8ZM701.8 632.1V628.8H717V632.1H701.8Z" fill="white"/>
<path d="M721.8 632.1V605.7H725.4V632.1H721.8ZM724.2 620.6V617.6H731.3C732.8 617.6 734 617.2 734.9 616.4C735.7 615.6 736.1 614.6 736.1 613.2C736.1 611.9 735.7 610.9 734.9 610C734.1 609.2 732.9 608.7 731.4 608.7H724.2V605.6H731.5C733.2 605.6 734.6 605.9 735.9 606.6C737.1 607.2 738.1 608.1 738.8 609.2C739.5 610.3 739.8 611.6 739.8 613C739.8 614.5 739.5 615.8 738.8 616.9C738.1 618 737.2 618.9 735.9 619.5C734.7 620.1 733.2 620.4 731.5 620.4H724.2V620.6ZM737 632.1L727.4 620.3L730.8 619.1L741.5 632.1H737Z" fill="white"/>
<path d="M300 455.8H449.2C452.5 455.8 455.2 458.5 455.2 461.8C455.2 465.1 452.5 467.8 449.2 467.8H300C296.7 467.8 294 465.1 294 461.8C294 458.5 296.7 455.8 300 455.8Z" fill="#C62B50"/>
<path d="M272.7 505.399H421.9C425.2 505.399 427.9 508.099 427.9 511.399C427.9 514.699 425.2 517.399 421.9 517.399H272.7C269.4 517.399 266.7 514.699 266.7 511.399C266.8 507.999 269.4 505.399 272.7 505.399Z" fill="#F0D04F"/>
<path d="M414.4 528.7H435C438.3 528.7 441 531.4 441 534.7C441 538 438.3 540.7 435 540.7H414.4C411.1 540.7 408.4 538 408.4 534.7C408.5 531.4 411.1 528.7 414.4 528.7Z" fill="#C62B50"/>
<path d="M265.4 575.8H286C289.3 575.8 292 578.5 292 581.8C292 585.1 289.3 587.8 286 587.8H265.4C262.1 587.8 259.4 585.1 259.4 581.8C259.4 578.4 262.1 575.8 265.4 575.8Z" fill="#C62B50"/>
<path d="M393.9 552.5H418.8C422.1 552.5 424.8 555.2 424.8 558.5C424.8 561.8 422.1 564.5 418.8 564.5H393.9C390.6 564.5 387.9 561.8 387.9 558.5C387.9 555.1 390.6 552.5 393.9 552.5Z" fill="#C62B50"/>
<path d="M390.9 599.7H438.1C441.4 599.7 444.1 602.4 444.1 605.7C444.1 609 441.4 611.7 438.1 611.7H390.9C387.6 611.7 384.9 609 384.9 605.7C385 602.3 387.6 599.7 390.9 599.7Z" fill="#C62B50"/>
<path d="M306.1 481.1H438.6C441.9 481.1 444.6 483.8 444.6 487.1C444.6 490.4 441.9 493.1 438.6 493.1H306.1C302.8 493.1 300.1 490.4 300.1 487.1C300.2 483.8 302.9 481.1 306.1 481.1Z" fill="#B0DAF1"/>
<path d="M262.2 455.8H283C286.3 455.8 289 458.5 289 461.8C289 465.1 286.3 467.8 283 467.8H262.2C258.9 467.8 256.2 465.1 256.2 461.8C256.2 458.5 259 455.8 262.2 455.8Z" fill="#B0DAF1"/>
<path d="M403.2 622.899H424C427.3 622.899 430 625.599 430 628.899C430 632.199 427.3 634.899 424 634.899H403.2C399.9 634.899 397.2 632.199 397.2 628.899C397.2 625.599 400 622.899 403.2 622.899Z" fill="#FAF6F6"/>
<path d="M403.2 622.899H424C427.3 622.899 430 625.599 430 628.899C430 632.199 427.3 634.899 424 634.899H403.2C399.9 634.899 397.2 632.199 397.2 628.899C397.2 625.599 400 622.899 403.2 622.899Z" fill="#B0DAF1"/>
<path d="M244.9 528.7H377.4C380.7 528.7 383.4 531.4 383.4 534.7C383.4 538 380.7 540.7 377.4 540.7H244.9C241.6 540.7 238.9 538 238.9 534.7C238.9 531.4 241.6 528.7 244.9 528.7Z" fill="#B0DAF1"/>
<path d="M341.9 575.8H452.3C455.6 575.8 458.3 578.5 458.3 581.8C458.3 585.1 455.6 587.8 452.3 587.8H341.9C338.6 587.8 335.9 585.1 335.9 581.8C335.9 578.4 338.6 575.8 341.9 575.8Z" fill="#B0DAF1"/>
<path d="M240.4 599.7H372.9C376.2 599.7 378.9 602.4 378.9 605.7C378.9 609 376.2 611.7 372.9 611.7H240.4C237.1 611.7 234.4 609 234.4 605.7C234.4 602.3 237.1 599.7 240.4 599.7Z" fill="#B0DAF1"/>
<path d="M255 481.1H290.7C294 481.1 296.7 483.8 296.7 487.1C296.7 490.4 294 493.1 290.7 493.1H255C251.7 493.1 249 490.4 249 487.1C249.1 483.8 251.7 481.1 255 481.1Z" fill="#F0D04F"/>
<path d="M244.9 552.5H377.4C380.7 552.5 383.4 555.2 383.4 558.5C383.4 561.8 380.7 564.5 377.4 564.5H244.9C241.6 564.5 238.9 561.8 238.9 558.5C238.9 555.1 241.6 552.5 244.9 552.5Z" fill="#F0D04F"/>
<path d="M301.7 575.8H326.4C329.7 575.8 332.4 578.5 332.4 581.8C332.4 585.1 329.7 587.8 326.4 587.8H301.6C298.3 587.8 295.6 585.1 295.6 581.8C295.7 578.4 298.4 575.8 301.7 575.8Z" fill="#F0D04F"/>
<path d="M395.9 540.7C399.214 540.7 401.9 538.014 401.9 534.7C401.9 531.386 399.214 528.7 395.9 528.7C392.586 528.7 389.9 531.386 389.9 534.7C389.9 538.014 392.586 540.7 395.9 540.7Z" fill="#B0DAF1"/>
<path d="M255.8 622.899H388.3C391.6 622.899 394.3 625.599 394.3 628.899C394.3 632.199 391.6 634.899 388.3 634.899H255.8C252.5 634.899 249.8 632.199 249.8 628.899C249.9 625.599 252.5 622.899 255.8 622.899Z" fill="#F0D04F"/>
<path d="M240.4 634.8C243.714 634.8 246.4 632.114 246.4 628.8C246.4 625.486 243.714 622.8 240.4 622.8C237.086 622.8 234.4 625.486 234.4 628.8C234.4 632.114 237.086 634.8 240.4 634.8Z" fill="#B0DAF1"/>
<path d="M244.9 467.8C248.214 467.8 250.9 465.114 250.9 461.8C250.9 458.486 248.214 455.8 244.9 455.8C241.586 455.8 238.9 458.486 238.9 461.8C238.9 465.114 241.586 467.8 244.9 467.8Z" fill="#C62B50"/>
<path d="M300 455.8H449.2C452.5 455.8 455.2 458.5 455.2 461.8C455.2 465.1 452.5 467.8 449.2 467.8H300C296.7 467.8 294 465.1 294 461.8C294 458.5 296.7 455.8 300 455.8Z" fill="#C62B50"/>
<path d="M272.7 505.399H421.9C425.2 505.399 427.9 508.099 427.9 511.399C427.9 514.699 425.2 517.399 421.9 517.399H272.7C269.4 517.399 266.7 514.699 266.7 511.399C266.8 507.999 269.4 505.399 272.7 505.399Z" fill="#F0D04F"/>
<path d="M414.4 528.7H435C438.3 528.7 441 531.4 441 534.7C441 538 438.3 540.7 435 540.7H414.4C411.1 540.7 408.4 538 408.4 534.7C408.5 531.4 411.1 528.7 414.4 528.7Z" fill="#C62B50"/>
<path d="M265.4 575.8H286C289.3 575.8 292 578.5 292 581.8C292 585.1 289.3 587.8 286 587.8H265.4C262.1 587.8 259.4 585.1 259.4 581.8C259.4 578.4 262.1 575.8 265.4 575.8Z" fill="#C62B50"/>
<path d="M393.9 552.5H418.8C422.1 552.5 424.8 555.2 424.8 558.5C424.8 561.8 422.1 564.5 418.8 564.5H393.9C390.6 564.5 387.9 561.8 387.9 558.5C387.9 555.1 390.6 552.5 393.9 552.5Z" fill="#C62B50"/>
<path d="M390.9 599.7H438.1C441.4 599.7 444.1 602.4 444.1 605.7C444.1 609 441.4 611.7 438.1 611.7H390.9C387.6 611.7 384.9 609 384.9 605.7C385 602.3 387.6 599.7 390.9 599.7Z" fill="#C62B50"/>
<path d="M306.1 481.1H438.6C441.9 481.1 444.6 483.8 444.6 487.1C444.6 490.4 441.9 493.1 438.6 493.1H306.1C302.8 493.1 300.1 490.4 300.1 487.1C300.2 483.8 302.9 481.1 306.1 481.1Z" fill="#B0DAF1"/>
<path d="M262.2 455.8H283C286.3 455.8 289 458.5 289 461.8C289 465.1 286.3 467.8 283 467.8H262.2C258.9 467.8 256.2 465.1 256.2 461.8C256.2 458.5 259 455.8 262.2 455.8Z" fill="#B0DAF1"/>
<path d="M403.2 622.899H424C427.3 622.899 430 625.599 430 628.899C430 632.199 427.3 634.899 424 634.899H403.2C399.9 634.899 397.2 632.199 397.2 628.899C397.2 625.599 400 622.899 403.2 622.899Z" fill="#FAF6F6"/>
<path d="M403.2 622.899H424C427.3 622.899 430 625.599 430 628.899C430 632.199 427.3 634.899 424 634.899H403.2C399.9 634.899 397.2 632.199 397.2 628.899C397.2 625.599 400 622.899 403.2 622.899Z" fill="#B0DAF1"/>
<path d="M244.9 528.7H377.4C380.7 528.7 383.4 531.4 383.4 534.7C383.4 538 380.7 540.7 377.4 540.7H244.9C241.6 540.7 238.9 538 238.9 534.7C238.9 531.4 241.6 528.7 244.9 528.7Z" fill="#B0DAF1"/>
<path d="M341.9 575.8H452.3C455.6 575.8 458.3 578.5 458.3 581.8C458.3 585.1 455.6 587.8 452.3 587.8H341.9C338.6 587.8 335.9 585.1 335.9 581.8C335.9 578.4 338.6 575.8 341.9 575.8Z" fill="#B0DAF1"/>
<path d="M240.4 599.7H372.9C376.2 599.7 378.9 602.4 378.9 605.7C378.9 609 376.2 611.7 372.9 611.7H240.4C237.1 611.7 234.4 609 234.4 605.7C234.4 602.3 237.1 599.7 240.4 599.7Z" fill="#B0DAF1"/>
<path d="M255 481.1H290.7C294 481.1 296.7 483.8 296.7 487.1C296.7 490.4 294 493.1 290.7 493.1H255C251.7 493.1 249 490.4 249 487.1C249.1 483.8 251.7 481.1 255 481.1Z" fill="#F0D04F"/>
<path d="M244.9 552.5H377.4C380.7 552.5 383.4 555.2 383.4 558.5C383.4 561.8 380.7 564.5 377.4 564.5H244.9C241.6 564.5 238.9 561.8 238.9 558.5C238.9 555.1 241.6 552.5 244.9 552.5Z" fill="#F0D04F"/>
<path d="M301.7 575.8H326.4C329.7 575.8 332.4 578.5 332.4 581.8C332.4 585.1 329.7 587.8 326.4 587.8H301.6C298.3 587.8 295.6 585.1 295.6 581.8C295.7 578.4 298.4 575.8 301.7 575.8Z" fill="#F0D04F"/>
<path d="M395.9 540.7C399.214 540.7 401.9 538.014 401.9 534.7C401.9 531.386 399.214 528.7 395.9 528.7C392.586 528.7 389.9 531.386 389.9 534.7C389.9 538.014 392.586 540.7 395.9 540.7Z" fill="#B0DAF1"/>
<path d="M255.8 622.899H388.3C391.6 622.899 394.3 625.599 394.3 628.899C394.3 632.199 391.6 634.899 388.3 634.899H255.8C252.5 634.899 249.8 632.199 249.8 628.899C249.9 625.599 252.5 622.899 255.8 622.899Z" fill="#F0D04F"/>
<path d="M240.4 634.8C243.714 634.8 246.4 632.114 246.4 628.8C246.4 625.486 243.714 622.8 240.4 622.8C237.086 622.8 234.4 625.486 234.4 628.8C234.4 632.114 237.086 634.8 240.4 634.8Z" fill="#B0DAF1"/>
<path d="M244.9 467.8C248.214 467.8 250.9 465.114 250.9 461.8C250.9 458.486 248.214 455.8 244.9 455.8C241.586 455.8 238.9 458.486 238.9 461.8C238.9 465.114 241.586 467.8 244.9 467.8Z" fill="#C62B50"/>
</g>
<defs>
<clipPath id="clip0_74_85">
<rect width="1080" height="1080" fill="white"/>
</clipPath>
</defs>
</svg>
